<svg xmlns="http://www.w3.org/2000/svg" xmlns:xlink="http://www.w3.org/1999/xlink" width="400" zoomAndPan="magnify" viewBox="0 0 300 74.999997" height="100" preserveAspectRatio="xMidYMid meet" version="1.0"><defs><g/><clipPath id="3f7f6087fa"><rect x="0" width="291" y="0" height="75"/></clipPath></defs><g transform="matrix(1, 0, 0, 1, 7, -0.000000000000001893)"><g clip-path="url(#3f7f6087fa)"><g fill="#000000" fill-opacity="1"><g transform="translate(0.524206, 58.575391)"><g><path d="M 26.765625 0.65625 C 23.410156 0.65625 20.28125 0.0390625 17.375 -1.1875 C 14.46875 -2.425781 11.910156 -4.132812 9.703125 -6.3125 C 7.503906 -8.488281 5.773438 -11.007812 4.515625 -13.875 C 3.265625 -16.738281 2.640625 -19.820312 2.640625 -23.125 C 2.640625 -26.425781 3.265625 -29.507812 4.515625 -32.375 C 5.773438 -35.238281 7.503906 -37.757812 9.703125 -39.9375 C 11.910156 -42.125 14.46875 -43.832031 17.375 -45.0625 C 20.28125 -46.300781 23.410156 -46.921875 26.765625 -46.921875 C 28.835938 -46.921875 30.84375 -46.695312 32.78125 -46.25 C 34.71875 -45.8125 36.5 -45.148438 38.125 -44.265625 C 38.789062 -43.921875 39.285156 -43.445312 39.609375 -42.84375 C 39.941406 -42.25 40.109375 -41.644531 40.109375 -41.03125 C 40.109375 -39.976562 39.753906 -39.03125 39.046875 -38.1875 C 38.347656 -37.351562 37.445312 -36.9375 36.34375 -36.9375 C 35.988281 -36.9375 35.625 -36.976562 35.25 -37.0625 C 34.875 -37.15625 34.507812 -37.289062 34.15625 -37.46875 C 33.0625 -37.945312 31.894531 -38.316406 30.65625 -38.578125 C 29.425781 -38.847656 28.128906 -38.984375 26.765625 -38.984375 C 23.898438 -38.984375 21.285156 -38.265625 18.921875 -36.828125 C 16.566406 -35.398438 14.695312 -33.484375 13.3125 -31.078125 C 11.925781 -28.679688 11.234375 -26.03125 11.234375 -23.125 C 11.234375 -20.257812 11.925781 -17.613281 13.3125 -15.1875 C 14.695312 -12.769531 16.566406 -10.84375 18.921875 -9.40625 C 21.285156 -7.976562 23.898438 -7.265625 26.765625 -7.265625 C 28.085938 -7.265625 29.539062 -7.394531 31.125 -7.65625 C 32.707031 -7.925781 34.003906 -8.28125 35.015625 -8.71875 L 34.421875 -6.734375 L 34.421875 -18.046875 L 35.546875 -17.046875 L 28.21875 -17.046875 C 27.070312 -17.046875 26.113281 -17.421875 25.34375 -18.171875 C 24.570312 -18.921875 24.1875 -19.867188 24.1875 -21.015625 C 24.1875 -22.160156 24.570312 -23.109375 25.34375 -23.859375 C 26.113281 -24.609375 27.070312 -24.984375 28.21875 -24.984375 L 39.046875 -24.984375 C 40.191406 -24.984375 41.140625 -24.597656 41.890625 -23.828125 C 42.640625 -23.054688 43.015625 -22.097656 43.015625 -20.953125 L 43.015625 -6.9375 C 43.015625 -6.050781 42.804688 -5.320312 42.390625 -4.75 C 41.972656 -4.1875 41.5 -3.726562 40.96875 -3.375 C 38.9375 -2.132812 36.71875 -1.148438 34.3125 -0.421875 C 31.914062 0.296875 29.398438 0.65625 26.765625 0.65625 Z M 26.765625 0.65625 "/></g></g></g><g fill="#000000" fill-opacity="1"><g transform="translate(46.507802, 58.575391)"><g><path d="M 8.265625 0 C 7.117188 0 6.171875 -0.382812 5.421875 -1.15625 C 4.671875 -1.925781 4.296875 -2.882812 4.296875 -4.03125 L 4.296875 -31.328125 C 4.296875 -32.472656 4.671875 -33.429688 5.421875 -34.203125 C 6.171875 -34.972656 7.117188 -35.359375 8.265625 -35.359375 C 9.410156 -35.359375 10.351562 -34.972656 11.09375 -34.203125 C 11.84375 -33.429688 12.21875 -32.472656 12.21875 -31.328125 L 12.21875 -25.109375 L 11.765625 -29.53125 C 12.242188 -30.59375 12.867188 -31.53125 13.640625 -32.34375 C 14.410156 -33.15625 15.28125 -33.835938 16.25 -34.390625 C 17.21875 -34.941406 18.253906 -35.347656 19.359375 -35.609375 C 20.460938 -35.878906 21.566406 -36.015625 22.671875 -36.015625 C 23.984375 -36.015625 25.09375 -35.640625 26 -34.890625 C 26.90625 -34.140625 27.359375 -33.257812 27.359375 -32.25 C 27.359375 -30.789062 26.984375 -29.742188 26.234375 -29.109375 C 25.484375 -28.472656 24.664062 -28.15625 23.78125 -28.15625 C 22.945312 -28.15625 22.1875 -28.304688 21.5 -28.609375 C 20.820312 -28.921875 20.039062 -29.078125 19.15625 -29.078125 C 18.363281 -29.078125 17.5625 -28.890625 16.75 -28.515625 C 15.9375 -28.140625 15.1875 -27.554688 14.5 -26.765625 C 13.820312 -25.972656 13.269531 -24.988281 12.84375 -23.8125 C 12.425781 -22.644531 12.21875 -21.269531 12.21875 -19.6875 L 12.21875 -4.03125 C 12.21875 -2.882812 11.84375 -1.925781 11.09375 -1.15625 C 10.351562 -0.382812 9.410156 0 8.265625 0 Z M 8.265625 0 "/></g></g></g><g fill="#000000" fill-opacity="1"><g transform="translate(75.181485, 58.575391)"><g><path d="M 38.59375 -17.640625 C 38.59375 -14.023438 37.785156 -10.84375 36.171875 -8.09375 C 34.566406 -5.34375 32.410156 -3.195312 29.703125 -1.65625 C 26.992188 -0.113281 23.960938 0.65625 20.609375 0.65625 C 17.265625 0.65625 14.238281 -0.113281 11.53125 -1.65625 C 8.820312 -3.195312 6.660156 -5.34375 5.046875 -8.09375 C 3.441406 -10.84375 2.640625 -14.023438 2.640625 -17.640625 C 2.640625 -21.253906 3.441406 -24.4375 5.046875 -27.1875 C 6.660156 -29.945312 8.820312 -32.109375 11.53125 -33.671875 C 14.238281 -35.234375 17.265625 -36.015625 20.609375 -36.015625 C 23.960938 -36.015625 26.992188 -35.234375 29.703125 -33.671875 C 32.410156 -32.109375 34.566406 -29.945312 36.171875 -27.1875 C 37.785156 -24.4375 38.59375 -21.253906 38.59375 -17.640625 Z M 30.65625 -17.640625 C 30.65625 -19.890625 30.203125 -21.835938 29.296875 -23.484375 C 28.398438 -25.140625 27.191406 -26.429688 25.671875 -27.359375 C 24.148438 -28.285156 22.460938 -28.75 20.609375 -28.75 C 18.765625 -28.75 17.082031 -28.285156 15.5625 -27.359375 C 14.039062 -26.429688 12.828125 -25.140625 11.921875 -23.484375 C 11.023438 -21.835938 10.578125 -19.890625 10.578125 -17.640625 C 10.578125 -15.441406 11.023438 -13.515625 11.921875 -11.859375 C 12.828125 -10.210938 14.039062 -8.925781 15.5625 -8 C 17.082031 -7.070312 18.765625 -6.609375 20.609375 -6.609375 C 22.460938 -6.609375 24.148438 -7.070312 25.671875 -8 C 27.191406 -8.925781 28.398438 -10.210938 29.296875 -11.859375 C 30.203125 -13.515625 30.65625 -15.441406 30.65625 -17.640625 Z M 30.65625 -17.640625 "/></g></g></g><g fill="#000000" fill-opacity="1"><g transform="translate(116.408161, 58.575391)"><g><path d="M 30.53125 -35.359375 C 31.675781 -35.359375 32.625 -34.972656 33.375 -34.203125 C 34.125 -33.429688 34.5 -32.472656 34.5 -31.328125 L 34.5 -14.53125 C 34.5 -9.863281 33.195312 -6.164062 30.59375 -3.4375 C 28 -0.707031 24.253906 0.65625 19.359375 0.65625 C 14.472656 0.65625 10.738281 -0.707031 8.15625 -3.4375 C 5.582031 -6.164062 4.296875 -9.863281 4.296875 -14.53125 L 4.296875 -31.328125 C 4.296875 -32.472656 4.671875 -33.429688 5.421875 -34.203125 C 6.171875 -34.972656 7.117188 -35.359375 8.265625 -35.359375 C 9.410156 -35.359375 10.351562 -34.972656 11.09375 -34.203125 C 11.84375 -33.429688 12.21875 -32.472656 12.21875 -31.328125 L 12.21875 -14.53125 C 12.21875 -11.84375 12.8125 -9.847656 14 -8.546875 C 15.195312 -7.253906 16.984375 -6.609375 19.359375 -6.609375 C 21.785156 -6.609375 23.59375 -7.253906 24.78125 -8.546875 C 25.96875 -9.847656 26.5625 -11.84375 26.5625 -14.53125 L 26.5625 -31.328125 C 26.5625 -32.472656 26.9375 -33.429688 27.6875 -34.203125 C 28.4375 -34.972656 29.382812 -35.359375 30.53125 -35.359375 Z M 30.53125 -35.359375 "/></g></g></g><g fill="#000000" fill-opacity="1"><g transform="translate(155.190309, 58.575391)"><g><path d="M 22.59375 -36.015625 C 25.675781 -36.015625 28.441406 -35.234375 30.890625 -33.671875 C 33.335938 -32.109375 35.273438 -29.957031 36.703125 -27.21875 C 38.140625 -24.488281 38.859375 -21.316406 38.859375 -17.703125 C 38.859375 -14.097656 38.140625 -10.914062 36.703125 -8.15625 C 35.273438 -5.40625 33.359375 -3.25 30.953125 -1.6875 C 28.554688 -0.125 25.859375 0.65625 22.859375 0.65625 C 21.097656 0.65625 19.445312 0.367188 17.90625 -0.203125 C 16.363281 -0.773438 15.007812 -1.5 13.84375 -2.375 C 12.675781 -3.257812 11.769531 -4.148438 11.125 -5.046875 C 10.488281 -5.953125 10.171875 -6.710938 10.171875 -7.328125 L 12.21875 -8.1875 L 12.21875 9.1875 C 12.21875 10.332031 11.84375 11.289062 11.09375 12.0625 C 10.351562 12.832031 9.410156 13.21875 8.265625 13.21875 C 7.117188 13.21875 6.171875 12.84375 5.421875 12.09375 C 4.671875 11.34375 4.296875 10.375 4.296875 9.1875 L 4.296875 -31.328125 C 4.296875 -32.472656 4.671875 -33.429688 5.421875 -34.203125 C 6.171875 -34.972656 7.117188 -35.359375 8.265625 -35.359375 C 9.410156 -35.359375 10.351562 -34.972656 11.09375 -34.203125 C 11.84375 -33.429688 12.21875 -32.472656 12.21875 -31.328125 L 12.21875 -28.078125 L 11.09375 -28.671875 C 11.09375 -29.242188 11.398438 -29.9375 12.015625 -30.75 C 12.640625 -31.570312 13.476562 -32.390625 14.53125 -33.203125 C 15.59375 -34.015625 16.816406 -34.6875 18.203125 -35.21875 C 19.585938 -35.75 21.050781 -36.015625 22.59375 -36.015625 Z M 21.609375 -28.75 C 19.671875 -28.75 17.972656 -28.265625 16.515625 -27.296875 C 15.066406 -26.328125 13.929688 -25.015625 13.109375 -23.359375 C 12.296875 -21.703125 11.890625 -19.816406 11.890625 -17.703125 C 11.890625 -15.640625 12.296875 -13.757812 13.109375 -12.0625 C 13.929688 -10.363281 15.066406 -9.03125 16.515625 -8.0625 C 17.972656 -7.09375 19.671875 -6.609375 21.609375 -6.609375 C 23.546875 -6.609375 25.226562 -7.09375 26.65625 -8.0625 C 28.09375 -9.03125 29.21875 -10.363281 30.03125 -12.0625 C 30.84375 -13.757812 31.25 -15.640625 31.25 -17.703125 C 31.25 -19.816406 30.84375 -21.703125 30.03125 -23.359375 C 29.21875 -25.015625 28.09375 -26.328125 26.65625 -27.296875 C 25.226562 -28.265625 23.546875 -28.75 21.609375 -28.75 Z M 21.609375 -28.75 "/></g></g></g><g fill="#00bf63" fill-opacity="1"><g transform="translate(196.696785, 58.575391)"><g><path d="M 9.125 -46.328125 C 9.738281 -46.328125 10.382812 -46.160156 11.0625 -45.828125 C 11.75 -45.492188 12.269531 -45.0625 12.625 -44.53125 L 28.671875 -19.828125 L 25.375 -19.953125 L 41.828125 -44.53125 C 42.660156 -45.726562 43.738281 -46.328125 45.0625 -46.328125 C 46.125 -46.328125 47.070312 -45.953125 47.90625 -45.203125 C 48.738281 -44.453125 49.15625 -43.484375 49.15625 -42.296875 L 49.15625 -4.03125 C 49.15625 -2.882812 48.78125 -1.925781 48.03125 -1.15625 C 47.289062 -0.382812 46.300781 0 45.0625 0 C 43.832031 0 42.832031 -0.382812 42.0625 -1.15625 C 41.289062 -1.925781 40.90625 -2.882812 40.90625 -4.03125 L 40.90625 -35.15625 L 43.484375 -34.5625 L 30 -14.015625 C 29.601562 -13.523438 29.109375 -13.101562 28.515625 -12.75 C 27.921875 -12.394531 27.316406 -12.242188 26.703125 -12.296875 C 26.128906 -12.242188 25.539062 -12.394531 24.9375 -12.75 C 24.34375 -13.101562 23.847656 -13.523438 23.453125 -14.015625 L 10.84375 -33.96875 L 12.5625 -37.46875 L 12.5625 -4.03125 C 12.5625 -2.882812 12.207031 -1.925781 11.5 -1.15625 C 10.789062 -0.382812 9.863281 0 8.71875 0 C 7.625 0 6.722656 -0.382812 6.015625 -1.15625 C 5.304688 -1.925781 4.953125 -2.882812 4.953125 -4.03125 L 4.953125 -42.296875 C 4.953125 -43.390625 5.359375 -44.332031 6.171875 -45.125 C 6.992188 -45.925781 7.976562 -46.328125 9.125 -46.328125 Z M 9.125 -46.328125 "/></g></g></g><g fill="#00bf63" fill-opacity="1"><g transform="translate(250.806783, 58.575391)"><g><path d="M 20.953125 0.65625 C 17.203125 0.65625 13.953125 -0.125 11.203125 -1.6875 C 8.453125 -3.25 6.335938 -5.375 4.859375 -8.0625 C 3.378906 -10.75 2.640625 -13.789062 2.640625 -17.1875 C 2.640625 -21.144531 3.441406 -24.519531 5.046875 -27.3125 C 6.660156 -30.113281 8.765625 -32.265625 11.359375 -33.765625 C 13.960938 -35.265625 16.71875 -36.015625 19.625 -36.015625 C 21.875 -36.015625 24 -35.550781 26 -34.625 C 28.007812 -33.695312 29.785156 -32.425781 31.328125 -30.8125 C 32.867188 -29.207031 34.085938 -27.347656 34.984375 -25.234375 C 35.890625 -23.117188 36.34375 -20.875 36.34375 -18.5 C 36.300781 -17.445312 35.878906 -16.585938 35.078125 -15.921875 C 34.285156 -15.265625 33.363281 -14.9375 32.3125 -14.9375 L 7.078125 -14.9375 L 5.09375 -21.546875 L 29.34375 -21.546875 L 27.890625 -20.21875 L 27.890625 -22 C 27.796875 -23.28125 27.34375 -24.425781 26.53125 -25.4375 C 25.71875 -26.445312 24.703125 -27.25 23.484375 -27.84375 C 22.273438 -28.445312 20.988281 -28.75 19.625 -28.75 C 18.300781 -28.75 17.066406 -28.570312 15.921875 -28.21875 C 14.773438 -27.863281 13.785156 -27.265625 12.953125 -26.421875 C 12.117188 -25.585938 11.457031 -24.46875 10.96875 -23.0625 C 10.476562 -21.65625 10.234375 -19.867188 10.234375 -17.703125 C 10.234375 -15.328125 10.726562 -13.3125 11.71875 -11.65625 C 12.71875 -10.007812 14 -8.753906 15.5625 -7.890625 C 17.125 -7.035156 18.785156 -6.609375 20.546875 -6.609375 C 22.179688 -6.609375 23.484375 -6.738281 24.453125 -7 C 25.421875 -7.269531 26.203125 -7.59375 26.796875 -7.96875 C 27.390625 -8.34375 27.925781 -8.660156 28.40625 -8.921875 C 29.207031 -9.316406 29.957031 -9.515625 30.65625 -9.515625 C 31.625 -9.515625 32.425781 -9.179688 33.0625 -8.515625 C 33.707031 -7.859375 34.03125 -7.09375 34.03125 -6.21875 C 34.03125 -5.019531 33.414062 -3.9375 32.1875 -2.96875 C 31.039062 -2 29.429688 -1.148438 27.359375 -0.421875 C 25.285156 0.296875 23.148438 0.65625 20.953125 0.65625 Z M 20.953125 0.65625 "/></g></g></g></g></g></svg>