<svg xmlns="http://www.w3.org/2000/svg" xmlns:xlink="http://www.w3.org/1999/xlink" width="500" zoomAndPan="magnify" viewBox="0 0 375 374.999991" height="500" preserveAspectRatio="xMidYMid meet" version="1.0"><defs><clipPath id="89de8f896c"><path d="M 5.5625 167 L 123 167 L 123 295.628906 L 5.5625 295.628906 Z M 5.5625 167 " clip-rule="nonzero"/></clipPath><clipPath id="5a3452720e"><path d="M 35 79.628906 L 112 79.628906 L 112 156 L 35 156 Z M 35 79.628906 " clip-rule="nonzero"/></clipPath><clipPath id="a8ae22d7c2"><path d="M 120 167 L 256 167 L 256 295.628906 L 120 295.628906 Z M 120 167 " clip-rule="nonzero"/></clipPath><clipPath id="00ee7e879d"><path d="M 252 167 L 369.3125 167 L 369.3125 295.628906 L 252 295.628906 Z M 252 167 " clip-rule="nonzero"/></clipPath><clipPath id="d6305e4c89"><path d="M 263 79.628906 L 340 79.628906 L 340 156 L 263 156 Z M 263 79.628906 " clip-rule="nonzero"/></clipPath><clipPath id="6d0de6807e"><path d="M 149 79.628906 L 227 79.628906 L 227 156 L 149 156 Z M 149 79.628906 " clip-rule="nonzero"/></clipPath><clipPath id="117d8d5703"><path d="M 187.253906 162.214844 L 312.644531 162.214844 L 312.644531 224.785156 L 187.253906 224.785156 Z M 187.253906 162.214844 " clip-rule="nonzero"/></clipPath><clipPath id="5f42496350"><path d="M 312.644531 224.785156 C 312.644531 190.703125 284.152344 162.214844 250.070312 162.214844 C 215.988281 162.214844 187.5 190.703125 187.5 224.785156 L 222.242188 224.785156 C 222.242188 209.628906 234.914062 196.957031 250.070312 196.957031 C 265.230469 196.957031 277.898438 209.628906 277.898438 224.785156 Z M 312.644531 224.785156 " clip-rule="nonzero"/></clipPath><clipPath id="23ce4745ec"><path d="M 0.441406 0.214844 L 125.644531 0.214844 L 125.644531 62.785156 L 0.441406 62.785156 Z M 0.441406 0.214844 " clip-rule="nonzero"/></clipPath><clipPath id="fb8376537f"><path d="M 125.644531 62.785156 C 125.644531 28.703125 97.152344 0.214844 63.070312 0.214844 C 28.988281 0.214844 0.5 28.703125 0.5 62.785156 L 35.242188 62.785156 C 35.242188 47.628906 47.914062 34.957031 63.070312 34.957031 C 78.230469 34.957031 90.898438 47.628906 90.898438 62.785156 Z M 125.644531 62.785156 " clip-rule="nonzero"/></clipPath><clipPath id="b60dbed659"><rect x="0" width="126" y="0" height="63"/></clipPath><clipPath id="566031a3eb"><path d="M 51.613281 162.214844 L 177 162.214844 L 177 224.785156 L 51.613281 224.785156 Z M 51.613281 162.214844 " clip-rule="nonzero"/></clipPath><clipPath id="d44b0ce85d"><path d="M 177 224.785156 C 177 190.703125 148.511719 162.214844 114.429688 162.214844 C 80.347656 162.214844 51.855469 190.703125 51.855469 224.785156 L 86.601562 224.785156 C 86.601562 209.628906 99.269531 196.957031 114.429688 196.957031 C 129.585938 196.957031 142.257812 209.628906 142.257812 224.785156 Z M 177 224.785156 " clip-rule="nonzero"/></clipPath><clipPath id="30100eec0b"><path d="M 0.839844 0.214844 L 126 0.214844 L 126 62.785156 L 0.839844 62.785156 Z M 0.839844 0.214844 " clip-rule="nonzero"/></clipPath><clipPath id="3e11a132c8"><path d="M 126 62.785156 C 126 28.703125 97.511719 0.214844 63.429688 0.214844 C 29.347656 0.214844 0.855469 28.703125 0.855469 62.785156 L 35.601562 62.785156 C 35.601562 47.628906 48.269531 34.957031 63.429688 34.957031 C 78.585938 34.957031 91.257812 47.628906 91.257812 62.785156 Z M 126 62.785156 " clip-rule="nonzero"/></clipPath><clipPath id="577a399084"><rect x="0" width="126" y="0" height="63"/></clipPath></defs><g clip-path="url(#89de8f896c)"><path fill="#00bf63" d="M 122.941406 188.578125 C 113.523438 201.710938 107.980469 217.789062 107.980469 235.132812 L 107.980469 295.296875 L 5.609375 295.296875 L 5.609375 235.132812 C 5.609375 197.628906 36.011719 167.238281 73.507812 167.238281 C 93 167.238281 110.550781 175.433594 122.941406 188.578125 Z M 122.941406 188.578125 " fill-opacity="1" fill-rule="nonzero"/></g><g clip-path="url(#5a3452720e)"><path fill="#00bf63" d="M 111.667969 117.847656 C 111.667969 119.097656 111.605469 120.34375 111.484375 121.589844 C 111.359375 122.832031 111.175781 124.066406 110.933594 125.292969 C 110.691406 126.515625 110.386719 127.726562 110.023438 128.921875 C 109.660156 130.117188 109.242188 131.292969 108.761719 132.449219 C 108.285156 133.601562 107.75 134.730469 107.160156 135.832031 C 106.574219 136.933594 105.929688 138.003906 105.238281 139.042969 C 104.542969 140.082031 103.800781 141.085938 103.007812 142.050781 C 102.214844 143.015625 101.375 143.941406 100.492188 144.824219 C 99.609375 145.707031 98.683594 146.546875 97.71875 147.339844 C 96.753906 148.132812 95.75 148.875 94.710938 149.570312 C 93.671875 150.261719 92.601562 150.90625 91.5 151.492188 C 90.398438 152.082031 89.269531 152.617188 88.117188 153.09375 C 86.960938 153.574219 85.785156 153.992188 84.589844 154.355469 C 83.394531 154.71875 82.183594 155.023438 80.957031 155.265625 C 79.734375 155.507812 78.5 155.691406 77.253906 155.816406 C 76.011719 155.9375 74.765625 156 73.515625 156 C 72.265625 156 71.019531 155.9375 69.777344 155.816406 C 68.535156 155.691406 67.300781 155.507812 66.074219 155.265625 C 64.847656 155.023438 63.636719 154.71875 62.441406 154.355469 C 61.246094 153.992188 60.070312 153.574219 58.917969 153.09375 C 57.761719 152.617188 56.632812 152.082031 55.53125 151.492188 C 54.429688 150.90625 53.359375 150.261719 52.320312 149.570312 C 51.28125 148.875 50.28125 148.132812 49.3125 147.339844 C 48.347656 146.546875 47.421875 145.707031 46.539062 144.824219 C 45.65625 143.941406 44.816406 143.015625 44.027344 142.050781 C 43.234375 141.085938 42.488281 140.082031 41.796875 139.042969 C 41.101562 138.003906 40.460938 136.933594 39.871094 135.832031 C 39.28125 134.730469 38.75 133.601562 38.269531 132.449219 C 37.792969 131.292969 37.371094 130.117188 37.007812 128.921875 C 36.644531 127.726562 36.34375 126.515625 36.097656 125.292969 C 35.855469 124.066406 35.671875 122.832031 35.550781 121.589844 C 35.425781 120.34375 35.367188 119.097656 35.367188 117.847656 C 35.367188 116.597656 35.425781 115.351562 35.550781 114.109375 C 35.671875 112.867188 35.855469 111.632812 36.097656 110.40625 C 36.34375 109.179688 36.644531 107.96875 37.007812 106.773438 C 37.371094 105.578125 37.792969 104.402344 38.269531 103.25 C 38.75 102.09375 39.28125 100.964844 39.871094 99.863281 C 40.460938 98.761719 41.101562 97.691406 41.796875 96.652344 C 42.488281 95.613281 43.234375 94.613281 44.027344 93.644531 C 44.820312 92.679688 45.65625 91.757812 46.539062 90.871094 C 47.421875 89.988281 48.347656 89.152344 49.3125 88.359375 C 50.28125 87.566406 51.28125 86.820312 52.320312 86.128906 C 53.359375 85.433594 54.429688 84.792969 55.53125 84.203125 C 56.632812 83.613281 57.761719 83.082031 58.917969 82.601562 C 60.070312 82.125 61.246094 81.703125 62.441406 81.339844 C 63.636719 80.976562 64.847656 80.675781 66.074219 80.429688 C 67.300781 80.1875 68.535156 80.003906 69.777344 79.882812 C 71.019531 79.757812 72.265625 79.699219 73.515625 79.699219 C 74.765625 79.699219 76.011719 79.757812 77.253906 79.882812 C 78.5 80.003906 79.734375 80.1875 80.957031 80.429688 C 82.183594 80.675781 83.394531 80.976562 84.589844 81.339844 C 85.785156 81.703125 86.960938 82.125 88.117188 82.601562 C 89.269531 83.082031 90.398438 83.613281 91.5 84.203125 C 92.601562 84.792969 93.671875 85.433594 94.710938 86.128906 C 95.75 86.820312 96.753906 87.566406 97.71875 88.359375 C 98.683594 89.152344 99.609375 89.988281 100.492188 90.871094 C 101.375 91.753906 102.214844 92.679688 103.007812 93.644531 C 103.800781 94.613281 104.542969 95.613281 105.238281 96.652344 C 105.929688 97.691406 106.574219 98.761719 107.160156 99.863281 C 107.75 100.964844 108.285156 102.09375 108.761719 103.25 C 109.242188 104.402344 109.660156 105.578125 110.023438 106.773438 C 110.386719 107.96875 110.691406 109.179688 110.933594 110.40625 C 111.175781 111.632812 111.359375 112.867188 111.484375 114.109375 C 111.605469 115.351562 111.667969 116.597656 111.667969 117.847656 Z M 111.667969 117.847656 " fill-opacity="1" fill-rule="nonzero"/></g><g clip-path="url(#a8ae22d7c2)"><path fill="#00bf63" d="M 188.070312 167.226562 C 150.566406 167.226562 120.175781 197.628906 120.175781 235.121094 L 120.175781 295.289062 L 255.976562 295.289062 L 255.976562 235.121094 C 255.976562 197.628906 225.574219 167.226562 188.070312 167.226562 Z M 188.070312 167.226562 " fill-opacity="1" fill-rule="nonzero"/></g><g clip-path="url(#00ee7e879d)"><path fill="#00bf63" d="M 369.476562 235.132812 L 369.476562 295.296875 L 268.167969 295.296875 L 268.167969 235.132812 C 268.167969 217.507812 262.449219 201.195312 252.757812 187.949219 C 265.101562 175.171875 282.410156 167.238281 301.574219 167.238281 C 339.066406 167.238281 369.476562 197.628906 369.476562 235.132812 Z M 369.476562 235.132812 " fill-opacity="1" fill-rule="nonzero"/></g><g clip-path="url(#d6305e4c89)"><path fill="#00bf63" d="M 339.722656 117.847656 C 339.722656 119.097656 339.664062 120.34375 339.539062 121.589844 C 339.417969 122.832031 339.234375 124.066406 338.992188 125.292969 C 338.746094 126.515625 338.445312 127.726562 338.082031 128.921875 C 337.71875 130.117188 337.296875 131.292969 336.820312 132.449219 C 336.339844 133.601562 335.808594 134.730469 335.21875 135.832031 C 334.628906 136.933594 333.988281 138.003906 333.292969 139.042969 C 332.601562 140.082031 331.855469 141.085938 331.0625 142.050781 C 330.269531 143.015625 329.433594 143.941406 328.550781 144.824219 C 327.667969 145.707031 326.742188 146.546875 325.777344 147.339844 C 324.808594 148.132812 323.808594 148.875 322.769531 149.570312 C 321.730469 150.261719 320.660156 150.90625 319.558594 151.492188 C 318.457031 152.082031 317.328125 152.617188 316.171875 153.09375 C 315.019531 153.574219 313.84375 153.992188 312.648438 154.355469 C 311.453125 154.71875 310.242188 155.023438 309.015625 155.265625 C 307.789062 155.507812 306.554688 155.691406 305.3125 155.816406 C 304.070312 155.9375 302.824219 156 301.574219 156 C 300.324219 156 299.078125 155.9375 297.835938 155.816406 C 296.589844 155.691406 295.355469 155.507812 294.128906 155.265625 C 292.90625 155.023438 291.695312 154.71875 290.5 154.355469 C 289.304688 153.992188 288.128906 153.574219 286.972656 153.09375 C 285.820312 152.617188 284.691406 152.082031 283.589844 151.492188 C 282.488281 150.90625 281.417969 150.261719 280.378906 149.570312 C 279.339844 148.875 278.335938 148.132812 277.371094 147.339844 C 276.40625 146.546875 275.480469 145.707031 274.597656 144.824219 C 273.714844 143.941406 272.875 143.015625 272.082031 142.050781 C 271.289062 141.085938 270.546875 140.082031 269.851562 139.042969 C 269.160156 138.003906 268.515625 136.933594 267.929688 135.832031 C 267.339844 134.730469 266.804688 133.601562 266.328125 132.449219 C 265.847656 131.292969 265.429688 130.117188 265.066406 128.921875 C 264.703125 127.726562 264.398438 126.515625 264.15625 125.292969 C 263.914062 124.066406 263.730469 122.832031 263.605469 121.589844 C 263.484375 120.34375 263.421875 119.097656 263.421875 117.847656 C 263.421875 116.597656 263.484375 115.351562 263.605469 114.109375 C 263.730469 112.867188 263.914062 111.632812 264.15625 110.40625 C 264.398438 109.179688 264.703125 107.96875 265.066406 106.773438 C 265.429688 105.578125 265.847656 104.402344 266.328125 103.25 C 266.804688 102.09375 267.339844 100.964844 267.929688 99.863281 C 268.515625 98.761719 269.160156 97.691406 269.851562 96.652344 C 270.546875 95.613281 271.289062 94.613281 272.082031 93.644531 C 272.875 92.679688 273.714844 91.757812 274.597656 90.871094 C 275.480469 89.988281 276.40625 89.152344 277.371094 88.359375 C 278.335938 87.566406 279.339844 86.820312 280.378906 86.128906 C 281.417969 85.433594 282.488281 84.792969 283.589844 84.203125 C 284.691406 83.613281 285.820312 83.082031 286.972656 82.601562 C 288.128906 82.125 289.304688 81.703125 290.5 81.339844 C 291.695312 80.976562 292.90625 80.675781 294.128906 80.429688 C 295.355469 80.1875 296.589844 80.003906 297.835938 79.882812 C 299.078125 79.757812 300.324219 79.699219 301.574219 79.699219 C 302.824219 79.699219 304.070312 79.757812 305.3125 79.882812 C 306.554688 80.003906 307.789062 80.1875 309.015625 80.429688 C 310.242188 80.675781 311.453125 80.976562 312.648438 81.339844 C 313.84375 81.703125 315.019531 82.125 316.171875 82.601562 C 317.328125 83.082031 318.457031 83.613281 319.558594 84.203125 C 320.660156 84.792969 321.730469 85.433594 322.769531 86.128906 C 323.808594 86.820312 324.808594 87.566406 325.777344 88.359375 C 326.742188 89.152344 327.667969 89.988281 328.550781 90.871094 C 329.433594 91.753906 330.269531 92.679688 331.0625 93.644531 C 331.855469 94.613281 332.601562 95.613281 333.292969 96.652344 C 333.988281 97.691406 334.628906 98.761719 335.21875 99.863281 C 335.808594 100.964844 336.339844 102.09375 336.820312 103.25 C 337.296875 104.402344 337.71875 105.578125 338.082031 106.773438 C 338.445312 107.96875 338.746094 109.179688 338.992188 110.40625 C 339.234375 111.632812 339.417969 112.867188 339.539062 114.109375 C 339.664062 115.351562 339.722656 116.597656 339.722656 117.847656 Z M 339.722656 117.847656 " fill-opacity="1" fill-rule="nonzero"/></g><g clip-path="url(#6d0de6807e)"><path fill="#00bf63" d="M 226.21875 117.847656 C 226.21875 119.097656 226.160156 120.34375 226.035156 121.589844 C 225.914062 122.832031 225.730469 124.066406 225.488281 125.292969 C 225.242188 126.515625 224.941406 127.726562 224.578125 128.921875 C 224.214844 130.117188 223.792969 131.292969 223.316406 132.449219 C 222.839844 133.601562 222.304688 134.730469 221.714844 135.832031 C 221.125 136.933594 220.484375 138.003906 219.789062 139.042969 C 219.097656 140.082031 218.351562 141.085938 217.5625 142.050781 C 216.769531 143.015625 215.929688 143.941406 215.046875 144.824219 C 214.164062 145.707031 213.238281 146.546875 212.273438 147.339844 C 211.304688 148.132812 210.304688 148.875 209.265625 149.570312 C 208.226562 150.261719 207.15625 150.90625 206.054688 151.492188 C 204.953125 152.082031 203.824219 152.617188 202.667969 153.09375 C 201.515625 153.574219 200.339844 153.992188 199.144531 154.355469 C 197.949219 154.71875 196.738281 155.023438 195.511719 155.265625 C 194.289062 155.507812 193.054688 155.691406 191.808594 155.816406 C 190.566406 155.9375 189.320312 156 188.070312 156 C 186.820312 156 185.574219 155.9375 184.332031 155.816406 C 183.085938 155.691406 181.851562 155.507812 180.628906 155.265625 C 179.402344 155.023438 178.191406 154.71875 176.996094 154.355469 C 175.800781 153.992188 174.625 153.574219 173.46875 153.09375 C 172.316406 152.617188 171.1875 152.082031 170.085938 151.492188 C 168.984375 150.90625 167.914062 150.261719 166.875 149.570312 C 165.835938 148.875 164.832031 148.132812 163.867188 147.339844 C 162.902344 146.546875 161.976562 145.707031 161.09375 144.824219 C 160.210938 143.941406 159.371094 143.015625 158.578125 142.050781 C 157.785156 141.085938 157.042969 140.082031 156.347656 139.042969 C 155.65625 138.003906 155.011719 136.933594 154.425781 135.832031 C 153.835938 134.730469 153.300781 133.601562 152.824219 132.449219 C 152.347656 131.292969 151.925781 130.117188 151.5625 128.921875 C 151.199219 127.726562 150.898438 126.515625 150.652344 125.292969 C 150.410156 124.066406 150.226562 122.832031 150.105469 121.589844 C 149.980469 120.34375 149.917969 119.097656 149.917969 117.847656 C 149.917969 116.597656 149.980469 115.351562 150.105469 114.109375 C 150.226562 112.867188 150.410156 111.632812 150.652344 110.40625 C 150.898438 109.179688 151.199219 107.96875 151.5625 106.773438 C 151.925781 105.578125 152.347656 104.402344 152.824219 103.25 C 153.300781 102.09375 153.835938 100.964844 154.425781 99.863281 C 155.011719 98.761719 155.65625 97.691406 156.347656 96.652344 C 157.042969 95.613281 157.785156 94.613281 158.578125 93.644531 C 159.371094 92.679688 160.210938 91.757812 161.09375 90.871094 C 161.976562 89.988281 162.902344 89.152344 163.867188 88.359375 C 164.832031 87.566406 165.835938 86.820312 166.875 86.128906 C 167.914062 85.433594 168.984375 84.792969 170.085938 84.203125 C 171.1875 83.613281 172.316406 83.082031 173.46875 82.601562 C 174.625 82.125 175.800781 81.703125 176.996094 81.339844 C 178.191406 80.976562 179.402344 80.675781 180.628906 80.429688 C 181.851562 80.1875 183.085938 80.003906 184.332031 79.882812 C 185.574219 79.757812 186.820312 79.699219 188.070312 79.699219 C 189.320312 79.699219 190.566406 79.757812 191.808594 79.882812 C 193.054688 80.003906 194.289062 80.1875 195.511719 80.429688 C 196.738281 80.675781 197.949219 80.976562 199.144531 81.339844 C 200.339844 81.703125 201.515625 82.125 202.667969 82.601562 C 203.824219 83.082031 204.953125 83.613281 206.054688 84.203125 C 207.15625 84.792969 208.226562 85.433594 209.265625 86.128906 C 210.304688 86.820312 211.304688 87.566406 212.273438 88.359375 C 213.238281 89.152344 214.164062 89.988281 215.046875 90.871094 C 215.929688 91.753906 216.769531 92.679688 217.5625 93.644531 C 218.351562 94.613281 219.097656 95.613281 219.789062 96.652344 C 220.484375 97.691406 221.125 98.761719 221.714844 99.863281 C 222.304688 100.964844 222.839844 102.09375 223.316406 103.25 C 223.792969 104.402344 224.214844 105.578125 224.578125 106.773438 C 224.941406 107.96875 225.242188 109.179688 225.488281 110.40625 C 225.730469 111.632812 225.914062 112.867188 226.035156 114.109375 C 226.160156 115.351562 226.21875 116.597656 226.21875 117.847656 Z M 226.21875 117.847656 " fill-opacity="1" fill-rule="nonzero"/></g><g clip-path="url(#117d8d5703)"><g clip-path="url(#5f42496350)"><g transform="matrix(1, 0, 0, 1, 187, 162)"><g clip-path="url(#b60dbed659)"><g clip-path="url(#23ce4745ec)"><g clip-path="url(#fb8376537f)"><path fill="#00bf63" d="M 0.5 0.214844 L 125.644531 0.214844 L 125.644531 62.785156 L 0.5 62.785156 Z M 0.5 0.214844 " fill-opacity="1" fill-rule="nonzero"/></g></g></g></g></g></g><g clip-path="url(#566031a3eb)"><g clip-path="url(#d44b0ce85d)"><g transform="matrix(1, 0, 0, 1, 51, 162)"><g clip-path="url(#577a399084)"><g clip-path="url(#30100eec0b)"><g clip-path="url(#3e11a132c8)"><path fill="#00bf63" d="M 0.855469 0.214844 L 126 0.214844 L 126 62.785156 L 0.855469 62.785156 Z M 0.855469 0.214844 " fill-opacity="1" fill-rule="nonzero"/></g></g></g></g></g></g></svg>